<svg version="1.1" id="Layer_1" xmlns="http://www.w3.org/2000/svg" xmlns:xlink="http://www.w3.org/1999/xlink" x="0px" y="0px"
	 width="100%" viewBox="0 0 992 992" enable-background="new 0 0 992 992" xml:space="preserve">
<path fill="#000000" opacity="1.000000" stroke="none" 
	d="
M65.468536,993.000000 
	C67.146996,981.107788 72.136040,970.175049 76.731758,959.151123 
	C87.621773,933.028870 102.845589,909.690674 123.005188,889.752808 
	C138.719513,874.211426 156.585571,861.400452 175.413528,849.932312 
	C216.972977,824.618530 258.014862,798.504395 298.074310,770.868286 
	C314.233948,759.720093 331.064301,750.197571 350.694611,746.444763 
	C357.161530,745.208374 358.251923,743.000977 358.848480,736.365417 
	C361.464081,707.271912 360.102875,678.144104 359.721008,649.024841 
	C359.701660,647.551086 359.755585,645.768372 358.998535,644.660278 
	C351.886627,634.250610 351.363312,622.172913 350.055054,610.292908 
	C349.791992,607.904053 349.548187,606.285217 346.248749,606.649536 
	C320.154053,609.531799 298.097931,600.779846 279.498352,582.750916 
	C261.899841,565.692322 250.154434,545.272156 246.102371,520.971436 
	C242.240967,497.814056 244.894623,475.486633 257.094635,454.927399 
	C258.749725,452.138275 258.900208,449.879974 257.466583,447.050842 
	C242.446320,417.409546 232.596954,386.083435 227.237579,353.325348 
	C221.203247,316.441772 222.188202,280.035828 235.530701,244.670563 
	C244.913177,219.801620 259.710175,199.117828 283.467651,185.947617 
	C293.948425,180.137466 305.137360,176.551300 317.326965,176.901260 
	C319.991455,176.977753 322.661591,177.000214 325.325439,176.922119 
	C330.523193,176.769745 331.704010,175.415543 330.358429,170.444382 
	C326.880920,157.597153 326.258606,144.500763 326.783997,131.320786 
	C327.002136,125.848717 327.866608,120.411552 329.538544,115.145119 
	C330.702362,111.479172 332.373169,108.231743 336.689148,107.758171 
	C341.274384,107.255043 344.406494,109.713509 346.285675,113.569016 
	C351.364563,123.989349 353.413086,135.352432 356.142365,146.494843 
	C356.566742,148.227310 356.689056,150.043533 358.381927,151.972061 
	C359.927521,144.954407 361.210480,138.345062 362.852234,131.826096 
	C367.283752,114.229797 373.675964,97.515137 385.505676,83.366531 
	C389.929443,78.075577 395.068878,73.553734 401.182678,70.372467 
	C409.152161,66.225601 414.693298,69.895248 414.559174,78.862732 
	C414.402740,89.324615 411.607727,99.266998 408.794159,109.213455 
	C406.902588,115.900543 404.991943,122.582245 402.989410,129.619232 
	C405.608643,129.712601 406.327637,128.017456 407.329315,126.902168 
	C427.364136,104.594612 450.797394,87.200623 479.157257,76.806702 
	C498.655151,69.660698 518.759338,65.645233 539.424805,63.732319 
	C554.417297,62.344532 569.449585,62.233757 584.346130,63.087132 
	C634.366455,65.952637 681.662537,78.182350 723.392212,107.296112 
	C740.844788,119.472305 755.311523,134.920715 769.684387,150.508865 
	C785.780029,167.965408 803.088135,184.083374 825.649902,193.165329 
	C835.461914,197.115005 845.644714,199.394608 856.234741,199.719315 
	C865.020203,199.988678 868.805237,206.691559 863.921509,214.118011 
	C857.302124,224.183762 846.800659,227.869873 835.624329,230.167618 
	C829.909058,231.342636 824.073853,231.064270 818.286133,231.351456 
	C817.806091,233.877914 819.608704,234.928955 820.646301,236.285370 
	C837.189880,257.911499 850.754089,281.107758 857.456238,307.752167 
	C861.659241,324.461609 862.236206,341.302673 857.234558,358.027924 
	C856.669556,359.917145 855.834961,361.802155 854.755493,363.446259 
	C851.969177,367.689941 847.507874,368.297241 843.601501,365.089172 
	C840.837830,362.819519 839.064575,359.819275 837.534058,356.630005 
	C833.995300,349.255676 829.854675,342.223877 825.220459,335.485504 
	C824.674927,334.692322 823.964905,334.012238 823.051270,332.956146 
	C821.565247,335.465240 822.181458,337.824219 822.143860,340.033875 
	C821.895996,354.618530 820.567017,368.958160 813.636902,382.205048 
	C811.008911,387.228424 807.353943,391.390900 802.457520,394.007416 
	C798.954773,395.879181 797.925476,398.166290 797.922241,401.905701 
	C797.913574,411.969971 797.775146,411.943481 807.286560,414.494080 
	C810.336609,415.312012 813.446777,416.053070 816.341675,417.274384 
	C824.323669,420.641876 827.628479,429.513947 821.242126,435.546265 
	C811.481628,444.765564 812.830078,456.280060 811.376160,467.263000 
	C808.642761,487.910248 803.905884,507.804474 792.955627,525.818848 
	C790.018127,530.651245 791.028381,536.184570 790.598755,541.404419 
	C787.942261,573.680481 784.083557,605.808533 772.400085,636.232910 
	C750.290771,693.806580 709.164856,731.754089 650.943359,751.490051 
	C643.519653,754.006531 635.961365,756.024231 628.220825,757.173279 
	C625.326294,757.603027 624.785950,758.758850 624.928467,761.420837 
	C625.221985,766.907410 625.334717,772.421692 625.131348,777.910156 
	C625.003601,781.359070 626.184448,783.293579 629.258545,784.984070 
	C674.075195,809.628418 718.909607,834.243225 763.538452,859.224731 
	C782.010986,869.564941 799.939758,880.805359 814.848633,896.228149 
	C829.186829,911.060669 839.055725,928.779968 848.216003,946.962341 
	C855.635681,961.689941 862.407837,976.720154 868.013184,992.622559 
	C861.978821,993.000000 855.957703,993.000000 849.307434,992.679321 
	C845.997620,986.259827 843.439087,980.103699 840.611267,974.073792 
	C834.389465,960.806519 827.783997,947.751587 820.690796,934.901733 
	C806.688171,909.535339 785.602417,892.273193 760.356140,879.149414 
	C731.541443,864.170593 702.679810,849.267639 674.411682,833.260010 
	C660.298157,825.267822 646.185425,817.274353 631.219666,808.798584 
	C638.283813,820.914246 642.453003,833.011902 643.165161,845.962402 
	C645.182251,882.641113 623.516846,916.889160 589.867249,931.678711 
	C568.826660,940.926331 546.869324,941.616699 524.736755,938.912964 
	C496.159271,935.421814 469.409485,925.814026 444.473175,911.493286 
	C409.690369,891.517700 380.045074,865.437256 355.164246,834.060669 
	C342.219635,817.736694 329.865021,800.892700 328.741180,778.086487 
	C322.059540,782.306274 315.730164,785.931824 309.792450,790.113403 
	C269.186676,818.709595 227.208389,845.137207 184.430847,870.347412 
	C164.874329,881.872742 146.189102,894.710083 130.903900,911.806396 
	C109.768814,935.445679 96.136589,963.263184 86.000000,993.000000 
	C79.312355,993.000000 72.624710,993.000000 65.468536,993.000000 
M739.447754,548.327698 
	C724.292664,548.847595 709.355957,547.329224 694.572937,542.819397 
	C693.223694,560.113098 682.874756,568.412964 667.843201,572.329407 
	C660.016907,574.368469 652.034668,574.653076 644.046387,573.903381 
	C640.753235,573.594299 637.552185,572.462952 634.721252,570.549011 
	C632.362793,568.954529 630.803101,566.932434 630.992493,563.939636 
	C631.186096,560.881348 633.068542,559.033264 635.763062,558.141296 
	C638.593872,557.204163 641.513611,556.462402 644.447510,555.924316 
	C651.475464,554.635559 658.603699,553.906250 665.286499,551.046082 
	C674.096619,547.275391 676.172058,542.517334 672.540405,533.641541 
	C671.146057,530.233582 669.222961,527.121460 667.134521,524.092773 
	C659.792908,513.445679 653.994324,502.073273 651.204041,489.343384 
	C649.467651,481.421417 650.649231,479.288422 657.690186,477.406433 
	C657.690186,474.140900 657.805542,470.826050 657.656921,467.523102 
	C657.515076,464.372162 656.888855,461.235687 656.857483,458.089050 
	C656.821655,454.500824 654.808960,453.019806 651.716003,452.460052 
	C646.129456,451.449036 640.577759,450.958374 634.847412,451.840973 
	C625.130981,453.337524 623.872742,454.367737 622.075256,464.015259 
	C619.292786,478.949432 615.250488,493.504578 609.330017,507.544708 
	C600.194824,529.208862 585.773254,544.130127 561.422058,548.079895 
	C541.519470,551.308167 521.682007,551.547546 501.786713,549.075867 
	C493.050659,547.990662 484.382050,546.149353 476.195953,542.677979 
	C459.597260,535.639343 450.430084,522.246887 444.875916,505.813568 
	C438.267487,486.260895 436.041840,465.968140 434.887848,445.518372 
	C434.552979,439.584076 433.814606,438.758392 428.041687,439.796875 
	C416.262817,441.915649 404.501770,444.144379 392.691437,446.070709 
	C389.162231,446.646332 387.712982,448.144653 387.001770,451.695923 
	C385.299683,460.195190 384.552948,468.803925 383.319763,477.354095 
	C382.231018,484.903229 382.175995,492.653259 379.669342,499.935944 
	C377.170135,507.196930 372.311432,508.220886 366.879913,502.796570 
	C363.517853,499.438934 361.722473,495.063477 359.707458,490.861969 
	C353.851562,478.651825 347.494873,466.771393 337.655853,457.173889 
	C317.091125,437.114044 289.745117,440.188934 274.342224,464.388763 
	C265.509186,478.266510 262.924164,493.614990 264.148315,509.802002 
	C266.104736,535.672424 276.620331,557.372620 296.804871,573.683655 
	C315.866577,589.087402 337.245605,593.185974 360.466766,583.648254 
	C367.944611,580.576843 370.957642,581.821045 372.413666,589.924011 
	C375.773315,608.620850 375.865204,627.639038 377.191589,646.526184 
	C378.884735,670.635925 378.029480,694.818604 378.504944,718.962830 
	C378.968903,742.520874 372.487732,763.316406 356.718750,780.962158 
	C354.712585,783.207153 354.705322,784.815552 356.574982,786.931152 
	C361.093597,792.044312 365.282440,797.471863 370.041199,802.346130 
	C398.265839,831.256470 431.655121,852.484009 468.648041,868.346436 
	C493.836517,879.147156 519.720886,886.953247 547.460510,885.830750 
	C566.040039,885.078918 583.291443,880.090454 597.134583,866.724731 
	C607.150940,857.053650 612.954712,845.604187 610.304688,831.345581 
	C608.871338,823.633240 607.192139,815.974487 607.651733,808.121216 
	C607.908325,803.735413 606.295654,802.120972 602.078796,801.138794 
	C588.449341,797.964050 575.060242,793.854431 562.172241,788.353638 
	C508.162415,765.301636 461.602142,731.807190 422.496765,688.022522 
	C412.486725,676.814697 403.526031,664.797729 397.280487,650.970337 
	C395.620270,647.294617 394.456512,643.498535 393.901886,639.520630 
	C393.742157,638.375000 393.755341,637.096130 395.051697,636.482605 
	C396.345184,635.870483 397.290833,636.685425 398.117004,637.520996 
	C398.816467,638.228394 399.405243,639.046204 400.034637,639.821899 
	C431.452545,678.542969 469.938782,707.699646 516.739563,725.346802 
	C551.850220,738.585999 587.940552,745.196533 625.353760,737.711060 
	C689.262329,724.924683 733.190674,688.062622 756.242249,626.956116 
	C763.751343,607.050537 766.872681,586.074036 768.671509,564.973572 
	C769.251343,558.172607 771.059998,551.262512 769.180420,543.980530 
	C759.555847,546.364441 750.092041,548.066711 739.447754,548.327698 
M639.331787,340.256866 
	C623.623901,332.761017 609.343689,322.886078 594.437073,312.187134 
	C595.162659,316.237549 596.980530,318.278473 598.214417,320.596436 
	C601.033752,325.892609 603.925232,331.131195 604.629700,337.260956 
	C605.484802,344.700653 601.126709,349.938965 593.675293,350.264221 
	C590.156433,350.417816 586.713379,350.073547 583.309937,349.100494 
	C554.414124,340.838989 530.092285,325.000824 508.918243,304.035950 
	C503.999573,299.165894 499.518372,293.854004 494.618134,288.507874 
	C492.293518,291.345428 492.328766,294.178253 492.089325,296.957672 
	C491.431000,304.599243 490.382996,312.193634 487.745911,319.431244 
	C482.755585,333.127472 470.804932,336.130524 459.793304,326.446320 
	C453.982605,321.336121 449.470886,315.168030 445.894806,308.294952 
	C444.800751,306.192291 444.163025,303.708618 441.064362,301.463287 
	C436.565918,346.376465 417.533997,384.900055 394.035889,421.223022 
	C395.998932,422.969788 397.154968,422.526184 398.277802,422.310760 
	C409.386810,420.179382 420.536804,418.237274 431.592255,415.856384 
	C448.997040,412.108215 466.531006,409.142334 484.268219,407.810455 
	C501.354736,406.527435 518.499939,405.920044 535.647461,406.354279 
	C555.587158,406.859253 575.592285,406.529602 595.278076,410.650879 
	C606.822449,413.067780 617.775024,416.293976 622.244019,429.054688 
	C623.060242,431.385406 624.952332,431.172272 626.806763,430.909912 
	C636.110840,429.593597 645.373718,429.875732 654.596558,431.609528 
	C656.576660,431.981781 657.781555,431.182709 658.498230,429.389862 
	C662.336304,419.788269 670.619324,416.030609 679.736450,413.788818 
	C691.735046,410.838501 704.031494,410.105347 716.347595,409.442017 
	C735.158569,408.428864 753.955872,408.072296 772.737061,409.608093 
	C777.403381,409.989685 778.866638,408.580780 778.810486,403.898804 
	C778.622559,388.240356 778.728638,372.575989 778.947144,356.916992 
	C778.995422,353.459015 777.814575,352.347809 774.469849,351.975586 
	C752.064697,349.482391 730.847900,343.050018 711.068848,332.137512 
	C706.168579,329.433929 701.416626,326.461578 695.377502,322.892303 
	C698.572449,328.871246 701.524292,333.470703 703.582581,338.440277 
	C707.823730,348.680176 703.970947,357.035706 689.372559,355.750122 
	C671.841614,354.206268 655.787231,347.846130 639.331787,340.256866 
M464.926270,431.367401 
	C459.159851,433.834412 456.931915,438.682739 456.444855,444.477142 
	C454.896667,462.895660 456.428192,481.021332 461.699646,498.806000 
	C467.331604,517.806824 480.104645,528.013062 499.546844,530.906616 
	C517.451599,533.571350 535.313904,533.678345 553.231628,531.626099 
	C572.212524,529.452026 585.490723,519.992615 592.880554,501.894226 
	C598.804626,487.385864 602.962036,472.392792 603.377869,456.958801 
	C603.944092,435.945465 598.903259,430.773132 582.056030,427.413940 
	C570.933105,425.196167 559.578491,424.916229 548.313049,424.502014 
	C531.180359,423.872070 513.998779,423.969208 496.903442,425.492004 
	C486.347748,426.432251 475.609070,426.784393 464.926270,431.367401 
M701.662048,429.270325 
	C698.913696,429.903839 696.177917,430.599640 693.414673,431.159851 
	C682.479736,433.376984 676.937073,440.482819 675.424683,451.118500 
	C672.952332,468.505981 674.566833,485.638062 679.515381,502.396545 
	C683.614807,516.279419 692.185730,525.973450 706.867310,529.336670 
	C719.489136,532.228027 732.296021,532.305542 745.077515,531.470642 
	C751.665344,531.040283 758.293701,529.788879 764.363037,526.835693 
	C768.917664,524.619629 772.006104,521.267090 772.940796,515.975647 
	C774.391785,507.761597 774.532776,499.474640 775.069519,491.192963 
	C776.338196,471.619446 775.859619,451.972504 777.692566,432.428223 
	C777.936401,429.827820 776.856384,428.669678 774.105408,428.179077 
	C767.671021,427.031555 761.167847,427.226288 754.710449,426.800476 
	C737.247070,425.648834 719.827332,426.448395 701.662048,429.270325 
z"/>
<path fill="#000000" opacity="1.000000" stroke="none" 
	d="
M203.467606,993.000000 
	C192.068665,972.503662 179.755783,952.965210 163.354141,936.303772 
	C159.618561,932.509033 155.613037,928.981384 151.782532,925.278320 
	C150.183456,923.732361 148.634552,921.954834 150.288589,919.635376 
	C151.807556,917.505310 154.012833,917.864685 156.189835,918.552551 
	C165.124924,921.375977 172.632706,926.578430 179.378128,932.872314 
	C197.332092,949.624695 209.968109,970.048645 219.963440,992.640015 
	C214.645065,993.000000 209.290146,993.000000 203.467606,993.000000 
z"/>
<path fill="#000000" opacity="1.000000" stroke="none" 
	d="
M803.464661,993.000000 
	C800.492737,975.732849 797.944824,958.471313 795.519348,941.192688 
	C795.129639,938.416443 795.203613,935.562744 795.229736,932.746399 
	C795.240723,931.565063 795.813843,930.461060 797.154480,930.127869 
	C798.495422,929.794678 799.443726,930.550354 800.105347,931.532104 
	C801.030640,932.905212 801.942749,934.328308 802.581177,935.847351 
	C810.170959,953.904968 814.080444,972.918396 817.051147,992.578979 
	C812.643127,993.000000 808.286194,993.000000 803.464661,993.000000 
z"/>
<path fill="#000000" opacity="1.000000" stroke="none" 
	d="
M322.754181,527.111694 
	C320.751984,531.758850 320.135620,536.398315 319.254333,540.964661 
	C318.675751,543.962585 317.511566,546.644226 314.214661,546.975708 
	C310.394928,547.359863 307.734161,545.096497 306.777924,541.566223 
	C303.677765,530.120667 305.746826,519.540100 312.625397,509.862976 
	C314.325867,507.470764 318.053192,505.679901 315.713898,501.813507 
	C312.786163,496.974518 310.027588,491.776581 303.861298,490.405457 
	C300.970490,489.762726 298.765350,491.500153 297.058472,493.732544 
	C296.454987,494.521820 295.992401,495.419281 295.471130,496.270813 
	C293.316956,499.789459 291.030182,503.249237 286.071045,501.824219 
	C282.288727,500.737366 280.802032,496.526398 281.882935,490.757416 
	C284.470825,476.945862 298.853546,469.595032 312.483948,475.089966 
	C320.549805,478.341675 326.231842,484.349701 331.030518,491.281586 
	C337.237976,500.248383 341.940063,509.937317 344.534637,520.600403 
	C346.128418,527.150513 345.226379,531.321350 341.590790,533.070190 
	C336.854553,535.348450 332.496460,533.694946 328.138977,528.529846 
	C327.034180,527.220398 326.405945,521.851257 322.754181,527.111694 
z"/>
<path fill="#000000" opacity="1.000000" stroke="none" 
	d="
M666.691284,620.580933 
	C656.996521,627.064026 646.142578,628.379272 635.403381,629.089355 
	C610.967224,630.705200 587.269043,627.264832 565.081543,616.271973 
	C557.885315,612.706543 551.247803,608.256714 546.543640,601.481018 
	C545.288269,599.672791 544.351624,597.780945 544.564575,595.457886 
	C544.902588,591.769531 547.240784,589.932861 550.718689,591.188293 
	C553.190369,592.080505 555.496094,593.519653 557.747803,594.920593 
	C575.774780,606.136597 595.598145,611.533447 616.545532,613.826782 
	C631.410278,615.454163 646.049438,614.715027 660.653625,611.840881 
	C661.300110,611.713623 661.981018,611.725281 662.645325,611.731140 
	C664.927368,611.751343 667.618347,611.057556 668.884399,613.663879 
	C670.132874,616.233948 669.020447,618.506165 666.691284,620.580933 
z"/>
<path fill="#000000" opacity="1.000000" stroke="none" 
	d="
M490.104675,387.329956 
	C485.839783,387.676239 482.039368,388.094299 478.227600,388.328308 
	C474.966766,388.528442 472.357239,387.258789 470.783264,384.284698 
	C469.234039,381.357391 470.357758,378.730988 472.013550,376.336548 
	C475.530365,371.250824 481.059845,368.994019 486.499146,367.020721 
	C501.462128,361.592438 516.944580,358.857941 532.910706,358.747833 
	C547.251343,358.648956 561.547729,358.659607 575.475952,362.782745 
	C578.853149,363.782501 582.050598,365.183044 585.039856,367.027161 
	C588.381714,369.088745 590.537109,372.003754 590.228271,376.063782 
	C589.909973,380.248108 587.505920,383.130737 583.673828,384.774231 
	C581.041565,385.903137 578.290588,386.358276 575.400024,386.331726 
	C561.576416,386.204651 547.764343,386.315216 533.934570,385.568237 
	C519.470459,384.786957 504.995789,386.059845 490.104675,387.329956 
z"/>
<path fill="#000000" opacity="1.000000" stroke="none" 
	d="
M678.630310,388.518250 
	C673.893677,382.949066 674.430847,378.853668 680.115967,375.075928 
	C687.962280,369.862152 697.099426,369.208893 705.966431,368.875427 
	C719.212341,368.377228 732.539978,367.907776 745.708069,370.644623 
	C752.111328,371.975464 758.318359,373.695312 763.887390,377.182831 
	C767.284729,379.310364 770.169800,382.172302 768.954773,386.550598 
	C767.701599,391.066498 763.847595,392.139221 759.525269,392.282227 
	C748.872314,392.634674 738.266113,391.693207 727.642212,391.291870 
	C716.152588,390.857819 704.724487,392.232574 693.255920,392.220673 
	C688.226562,392.215454 683.315491,391.521149 678.630310,388.518250 
z"/>
<path fill="#000000" opacity="1.000000" stroke="none" 
	d="
M522.579468,443.491089 
	C533.252197,435.389496 546.845276,438.341187 552.120300,450.193237 
	C558.649719,464.863831 558.499939,479.906036 552.140137,494.645447 
	C548.845276,502.281708 542.796814,506.697601 534.227478,506.779633 
	C526.022766,506.858185 520.833740,502.385498 516.804932,495.510925 
	C510.322388,484.449402 510.744659,452.557892 522.579468,443.491089 
z"/>
<path fill="#000000" opacity="1.000000" stroke="none" 
	d="
M730.620850,487.228333 
	C728.863220,493.474304 726.439819,498.873901 721.801575,503.028168 
	C713.996338,510.019043 702.949524,508.487732 697.315918,499.633667 
	C689.516235,487.375244 689.970947,461.866241 698.201233,449.967712 
	C706.529236,437.927917 721.760620,439.069427 728.306152,452.199249 
	C732.719849,461.052643 732.661133,470.464996 731.840637,479.965363 
	C731.641479,482.270966 731.136353,484.550171 730.620850,487.228333 
z"/>
</svg>